<mxfile host="Electron" agent="Mozilla/5.0 (X11; Linux x86_64) AppleWebKit/537.36 (KHTML, like Gecko) draw.io/25.0.2 Chrome/128.0.6613.186 Electron/32.2.5 Safari/537.36" version="25.0.2">
  <diagram name="Page-1" id="e7e014a7-5840-1c2e-5031-d8a46d1fe8dd">
    <mxGraphModel dx="819" dy="510" grid="1" gridSize="10" guides="1" tooltips="1" connect="1" arrows="1" fold="1" page="1" pageScale="1" pageWidth="4681" pageHeight="3300" background="none" math="0" shadow="0">
      <root>
        <mxCell id="0" />
        <mxCell id="1" parent="0" />
        <mxCell id="ImtniPc4bjEcf1J57x4S-56" value="" style="edgeStyle=orthogonalEdgeStyle;rounded=0;orthogonalLoop=1;jettySize=auto;html=1;" parent="1" source="ImtniPc4bjEcf1J57x4S-50" target="ImtniPc4bjEcf1J57x4S-51" edge="1">
          <mxGeometry relative="1" as="geometry" />
        </mxCell>
        <mxCell id="ImtniPc4bjEcf1J57x4S-50" value="Data Collector" style="rounded=0;whiteSpace=wrap;html=1;" parent="1" vertex="1">
          <mxGeometry x="250" y="280" width="95" height="40" as="geometry" />
        </mxCell>
        <mxCell id="ImtniPc4bjEcf1J57x4S-57" value="" style="edgeStyle=orthogonalEdgeStyle;rounded=0;orthogonalLoop=1;jettySize=auto;html=1;" parent="1" source="ImtniPc4bjEcf1J57x4S-51" target="ImtniPc4bjEcf1J57x4S-52" edge="1">
          <mxGeometry relative="1" as="geometry" />
        </mxCell>
        <mxCell id="ImtniPc4bjEcf1J57x4S-84" style="edgeStyle=orthogonalEdgeStyle;rounded=0;orthogonalLoop=1;jettySize=auto;html=1;entryX=0.5;entryY=1;entryDx=0;entryDy=0;" parent="1" source="ImtniPc4bjEcf1J57x4S-51" target="ImtniPc4bjEcf1J57x4S-83" edge="1">
          <mxGeometry relative="1" as="geometry" />
        </mxCell>
        <mxCell id="ImtniPc4bjEcf1J57x4S-51" value="PipeLine" style="rounded=0;whiteSpace=wrap;html=1;strokeColor=default;align=center;verticalAlign=middle;fontFamily=Helvetica;fontSize=12;fontColor=default;fillColor=default;" parent="1" vertex="1">
          <mxGeometry x="400" y="280" width="95" height="40" as="geometry" />
        </mxCell>
        <mxCell id="ImtniPc4bjEcf1J57x4S-58" value="" style="edgeStyle=orthogonalEdgeStyle;rounded=0;orthogonalLoop=1;jettySize=auto;html=1;" parent="1" source="ImtniPc4bjEcf1J57x4S-52" target="ImtniPc4bjEcf1J57x4S-53" edge="1">
          <mxGeometry relative="1" as="geometry" />
        </mxCell>
        <mxCell id="ImtniPc4bjEcf1J57x4S-52" value="Visualizer" style="rounded=0;whiteSpace=wrap;html=1;" parent="1" vertex="1">
          <mxGeometry x="560" y="280" width="95" height="40" as="geometry" />
        </mxCell>
        <mxCell id="ImtniPc4bjEcf1J57x4S-53" value="UI" style="rounded=0;whiteSpace=wrap;html=1;" parent="1" vertex="1">
          <mxGeometry x="770" y="280" width="95" height="40" as="geometry" />
        </mxCell>
        <mxCell id="ImtniPc4bjEcf1J57x4S-99" value="" style="edgeStyle=orthogonalEdgeStyle;orthogonalLoop=1;jettySize=auto;html=1;" parent="1" source="ImtniPc4bjEcf1J57x4S-54" target="ImtniPc4bjEcf1J57x4S-91" edge="1">
          <mxGeometry relative="1" as="geometry" />
        </mxCell>
        <mxCell id="ImtniPc4bjEcf1J57x4S-54" value="World/Simulator" style="html=1;whiteSpace=wrap;rounded=0;" parent="1" vertex="1">
          <mxGeometry x="250" y="90" width="95" height="40" as="geometry" />
        </mxCell>
        <mxCell id="ImtniPc4bjEcf1J57x4S-59" value="Frontend" style="html=1;whiteSpace=wrap;rounded=0;" parent="1" vertex="1">
          <mxGeometry x="770" y="380" width="95" height="40" as="geometry" />
        </mxCell>
        <mxCell id="ImtniPc4bjEcf1J57x4S-97" style="edgeStyle=orthogonalEdgeStyle;orthogonalLoop=1;jettySize=auto;html=1;rounded=0;strokeColor=default;align=center;verticalAlign=middle;fontFamily=Helvetica;fontSize=11;fontColor=default;labelBackgroundColor=default;endArrow=block;endFill=0;endSize=16;curved=0;" parent="1" source="ImtniPc4bjEcf1J57x4S-61" target="ImtniPc4bjEcf1J57x4S-53" edge="1">
          <mxGeometry relative="1" as="geometry">
            <Array as="points">
              <mxPoint x="988" y="350" />
              <mxPoint x="818" y="350" />
            </Array>
          </mxGeometry>
        </mxCell>
        <mxCell id="ImtniPc4bjEcf1J57x4S-61" value="Object" style="html=1;whiteSpace=wrap;rounded=0;" parent="1" vertex="1">
          <mxGeometry x="940" y="380" width="95" height="40" as="geometry" />
        </mxCell>
        <mxCell id="ImtniPc4bjEcf1J57x4S-98" style="edgeStyle=orthogonalEdgeStyle;orthogonalLoop=1;jettySize=auto;html=1;entryX=0.5;entryY=1;entryDx=0;entryDy=0;rounded=0;strokeColor=default;align=center;verticalAlign=middle;fontFamily=Helvetica;fontSize=11;fontColor=default;labelBackgroundColor=default;endArrow=block;endFill=0;endSize=16;curved=0;" parent="1" source="ImtniPc4bjEcf1J57x4S-67" target="ImtniPc4bjEcf1J57x4S-53" edge="1">
          <mxGeometry relative="1" as="geometry">
            <Array as="points">
              <mxPoint x="648" y="350" />
              <mxPoint x="818" y="350" />
            </Array>
          </mxGeometry>
        </mxCell>
        <mxCell id="ImtniPc4bjEcf1J57x4S-67" value="GUI" style="html=1;whiteSpace=wrap;rounded=0;" parent="1" vertex="1">
          <mxGeometry x="600" y="380" width="95" height="40" as="geometry" />
        </mxCell>
        <mxCell id="ImtniPc4bjEcf1J57x4S-86" style="edgeStyle=orthogonalEdgeStyle;rounded=0;orthogonalLoop=1;jettySize=auto;html=1;entryX=1;entryY=0.5;entryDx=0;entryDy=0;" parent="1" source="ImtniPc4bjEcf1J57x4S-83" target="ImtniPc4bjEcf1J57x4S-54" edge="1">
          <mxGeometry relative="1" as="geometry" />
        </mxCell>
        <mxCell id="ImtniPc4bjEcf1J57x4S-83" value="Decision Maker/&lt;div&gt;Simulator&lt;/div&gt;" style="html=1;whiteSpace=wrap;rounded=0;" parent="1" vertex="1">
          <mxGeometry x="400" y="90" width="95" height="40" as="geometry" />
        </mxCell>
        <mxCell id="ImtniPc4bjEcf1J57x4S-101" style="edgeStyle=orthogonalEdgeStyle;orthogonalLoop=1;jettySize=auto;html=1;entryX=0.5;entryY=0;entryDx=0;entryDy=0;rounded=0;strokeColor=default;align=center;verticalAlign=middle;fontFamily=Helvetica;fontSize=11;fontColor=default;labelBackgroundColor=default;endArrow=block;endFill=0;endSize=16;curved=0;" parent="1" source="ImtniPc4bjEcf1J57x4S-87" target="ImtniPc4bjEcf1J57x4S-52" edge="1">
          <mxGeometry relative="1" as="geometry" />
        </mxCell>
        <mxCell id="ImtniPc4bjEcf1J57x4S-87" value="Drawer" style="rounded=0;whiteSpace=wrap;html=1;" parent="1" vertex="1">
          <mxGeometry x="490" y="190" width="95" height="40" as="geometry" />
        </mxCell>
        <mxCell id="ImtniPc4bjEcf1J57x4S-102" style="edgeStyle=orthogonalEdgeStyle;orthogonalLoop=1;jettySize=auto;html=1;entryX=0.5;entryY=0;entryDx=0;entryDy=0;rounded=0;strokeColor=default;align=center;verticalAlign=middle;fontFamily=Helvetica;fontSize=11;fontColor=default;labelBackgroundColor=default;endArrow=block;endFill=0;endSize=16;curved=0;" parent="1" source="ImtniPc4bjEcf1J57x4S-88" target="ImtniPc4bjEcf1J57x4S-52" edge="1">
          <mxGeometry relative="1" as="geometry">
            <Array as="points">
              <mxPoint x="693" y="250" />
              <mxPoint x="608" y="250" />
            </Array>
          </mxGeometry>
        </mxCell>
        <mxCell id="ImtniPc4bjEcf1J57x4S-88" value="Plotter" style="rounded=0;whiteSpace=wrap;html=1;glass=0;shadow=0;" parent="1" vertex="1">
          <mxGeometry x="645" y="190" width="95" height="40" as="geometry" />
        </mxCell>
        <mxCell id="ImtniPc4bjEcf1J57x4S-100" value="" style="edgeStyle=orthogonalEdgeStyle;orthogonalLoop=1;jettySize=auto;html=1;" parent="1" source="ImtniPc4bjEcf1J57x4S-91" target="ImtniPc4bjEcf1J57x4S-50" edge="1">
          <mxGeometry relative="1" as="geometry" />
        </mxCell>
        <mxCell id="ImtniPc4bjEcf1J57x4S-91" value="Cameras" style="rounded=0;whiteSpace=wrap;html=1;strokeColor=default;align=center;verticalAlign=middle;fontFamily=Helvetica;fontSize=12;fontColor=default;fillColor=default;" parent="1" vertex="1">
          <mxGeometry x="250" y="190" width="95" height="40" as="geometry" />
        </mxCell>
        <mxCell id="ImtniPc4bjEcf1J57x4S-96" value="" style="endArrow=block;endSize=16;endFill=0;html=1;entryX=0.5;entryY=1;entryDx=0;entryDy=0;" parent="1" source="ImtniPc4bjEcf1J57x4S-59" target="ImtniPc4bjEcf1J57x4S-53" edge="1">
          <mxGeometry width="160" relative="1" as="geometry">
            <mxPoint x="590" y="340" as="sourcePoint" />
            <mxPoint x="750" y="340" as="targetPoint" />
          </mxGeometry>
        </mxCell>
        <mxCell id="ImtniPc4bjEcf1J57x4S-120" value="App cores" style="swimlane;horizontal=0;whiteSpace=wrap;html=1;dashed=1;dashPattern=12 12;" parent="1" vertex="1">
          <mxGeometry x="210" y="170" width="550" height="200" as="geometry">
            <mxRectangle x="210" y="170" width="40" height="100" as="alternateBounds" />
          </mxGeometry>
        </mxCell>
        <mxCell id="eqTm0PW1JnV0kWbe7cTr-12" style="orthogonalLoop=1;jettySize=auto;html=1;entryX=0.425;entryY=0.975;entryDx=0;entryDy=0;dashed=1;endArrow=open;endFill=0;entryPerimeter=0;exitX=0.25;exitY=0;exitDx=0;exitDy=0;" parent="ImtniPc4bjEcf1J57x4S-120" source="eqTm0PW1JnV0kWbe7cTr-9" edge="1">
          <mxGeometry relative="1" as="geometry">
            <mxPoint x="252.24481132075488" y="220.0000000000001" as="sourcePoint" />
            <mxPoint x="160" y="129" as="targetPoint" />
          </mxGeometry>
        </mxCell>
        <mxCell id="eqTm0PW1JnV0kWbe7cTr-15" style="orthogonalLoop=1;jettySize=auto;html=1;entryX=0.425;entryY=0.975;entryDx=0;entryDy=0;dashed=1;endArrow=open;endFill=0;entryPerimeter=0;exitX=0.64;exitY=0.03;exitDx=0;exitDy=0;exitPerimeter=0;" parent="ImtniPc4bjEcf1J57x4S-120" source="ImtniPc4bjEcf1J57x4S-107" edge="1">
          <mxGeometry relative="1" as="geometry">
            <mxPoint x="318" y="241" as="sourcePoint" />
            <mxPoint x="270" y="150" as="targetPoint" />
          </mxGeometry>
        </mxCell>
        <mxCell id="ImtniPc4bjEcf1J57x4S-105" value="Unidirection Dataflow" style="text;html=1;align=center;verticalAlign=middle;whiteSpace=wrap;rounded=0;" parent="1" vertex="1">
          <mxGeometry x="860" y="160" width="60" height="30" as="geometry" />
        </mxCell>
        <mxCell id="ImtniPc4bjEcf1J57x4S-107" value="Process should independent with sending message" style="text;html=1;align=center;verticalAlign=middle;whiteSpace=wrap;rounded=0;dashed=1;strokeColor=default;" parent="1" vertex="1">
          <mxGeometry x="415" y="430" width="170" height="30" as="geometry" />
        </mxCell>
        <mxCell id="ImtniPc4bjEcf1J57x4S-108" value="Define strategy to collect images from stream." style="text;html=1;align=center;verticalAlign=middle;whiteSpace=wrap;rounded=0;strokeColor=default;dashed=1;" parent="1" vertex="1">
          <mxGeometry x="220" y="390" width="170" height="30" as="geometry" />
        </mxCell>
        <mxCell id="ImtniPc4bjEcf1J57x4S-109" style="orthogonalLoop=1;jettySize=auto;html=1;entryX=0.425;entryY=0.975;entryDx=0;entryDy=0;dashed=1;endArrow=open;endFill=0;entryPerimeter=0;" parent="1" source="ImtniPc4bjEcf1J57x4S-108" target="ImtniPc4bjEcf1J57x4S-50" edge="1">
          <mxGeometry relative="1" as="geometry" />
        </mxCell>
        <mxCell id="ImtniPc4bjEcf1J57x4S-123" value="DATAFLOW DIAGRAM" style="text;strokeColor=none;fillColor=none;html=1;fontSize=24;fontStyle=1;verticalAlign=middle;align=center;" parent="1" vertex="1">
          <mxGeometry x="585" y="90" width="380" height="40" as="geometry" />
        </mxCell>
        <mxCell id="ImtniPc4bjEcf1J57x4S-124" value="Share memory and message passing" style="text;html=1;align=center;verticalAlign=middle;whiteSpace=wrap;rounded=0;" parent="1" vertex="1">
          <mxGeometry x="850" y="240" width="170" height="30" as="geometry" />
        </mxCell>
        <mxCell id="eqTm0PW1JnV0kWbe7cTr-1" style="orthogonalLoop=1;jettySize=auto;html=1;dashed=1;endArrow=open;endFill=0;" parent="1" source="eqTm0PW1JnV0kWbe7cTr-2" edge="1">
          <mxGeometry relative="1" as="geometry">
            <mxPoint x="191.62" y="110" as="sourcePoint" />
            <mxPoint x="300" y="150" as="targetPoint" />
          </mxGeometry>
        </mxCell>
        <mxCell id="eqTm0PW1JnV0kWbe7cTr-2" value="I/O Bound" style="text;html=1;align=center;verticalAlign=middle;whiteSpace=wrap;rounded=0;dashed=1;strokeColor=default;" parent="1" vertex="1">
          <mxGeometry x="160" y="130" width="70" height="30" as="geometry" />
        </mxCell>
        <mxCell id="eqTm0PW1JnV0kWbe7cTr-3" style="orthogonalLoop=1;jettySize=auto;html=1;dashed=1;endArrow=open;endFill=0;" parent="1" source="eqTm0PW1JnV0kWbe7cTr-4" edge="1">
          <mxGeometry relative="1" as="geometry">
            <mxPoint x="801.62" y="180" as="sourcePoint" />
            <mxPoint x="720" y="300" as="targetPoint" />
          </mxGeometry>
        </mxCell>
        <mxCell id="eqTm0PW1JnV0kWbe7cTr-4" value="I/O Bound" style="text;html=1;align=center;verticalAlign=middle;whiteSpace=wrap;rounded=0;dashed=1;strokeColor=default;" parent="1" vertex="1">
          <mxGeometry x="770" y="200" width="70" height="30" as="geometry" />
        </mxCell>
        <mxCell id="eqTm0PW1JnV0kWbe7cTr-6" value="Need: Input images and output of pipeline should sync&lt;div&gt;Interpolation result for continuously decision maker ( or just hold as the same previous result&lt;/div&gt;" style="text;html=1;align=center;verticalAlign=middle;whiteSpace=wrap;rounded=0;" parent="1" vertex="1">
          <mxGeometry x="585" y="20" width="335" height="40" as="geometry" />
        </mxCell>
        <mxCell id="eqTm0PW1JnV0kWbe7cTr-8" style="orthogonalLoop=1;jettySize=auto;html=1;dashed=1;endArrow=open;endFill=0;exitX=0.989;exitY=0.093;exitDx=0;exitDy=0;exitPerimeter=0;" parent="1" source="eqTm0PW1JnV0kWbe7cTr-2" edge="1">
          <mxGeometry relative="1" as="geometry">
            <mxPoint x="230" y="147" as="sourcePoint" />
            <mxPoint x="450" y="150" as="targetPoint" />
          </mxGeometry>
        </mxCell>
        <mxCell id="eqTm0PW1JnV0kWbe7cTr-9" value="Should have a queue" style="text;html=1;align=center;verticalAlign=middle;whiteSpace=wrap;rounded=0;strokeColor=default;dashed=1;" parent="1" vertex="1">
          <mxGeometry x="400" y="390" width="70" height="30" as="geometry" />
        </mxCell>
        <mxCell id="eqTm0PW1JnV0kWbe7cTr-16" value="Task decomposition: Pipeline pattern" style="text;html=1;align=center;verticalAlign=middle;whiteSpace=wrap;rounded=0;dashed=1;strokeColor=default;" parent="1" vertex="1">
          <mxGeometry x="210" y="20" width="70" height="30" as="geometry" />
        </mxCell>
        <mxCell id="XJknxzuPZn_kgnMr-SdR-1" value="&lt;h1 style=&quot;margin-top: 0px;&quot;&gt;Use Case&lt;/h1&gt;&lt;p&gt;- Connect images stream from source, supported sources are Webcamera, local camera, other process, and video.&lt;/p&gt;&lt;p&gt;- Receive data from srouce, process and broadcast output to world, such as simulator, actuator, other process, other network, browser.&lt;/p&gt;&lt;p&gt;- Have UI to monitor the post processed result, GUI can record stream, or generate new video if source is video. UI can be local GUI or web frontend.&lt;/p&gt;&lt;p&gt;- Have option to switch detection model.&lt;/p&gt;&lt;p&gt;- Have option to use model with multiple cameras, other sensor, ...&amp;nbsp;&lt;/p&gt;&lt;p&gt;&lt;br&gt;&lt;/p&gt;" style="text;html=1;whiteSpace=wrap;overflow=hidden;rounded=0;" parent="1" vertex="1">
          <mxGeometry x="180" y="630" width="570" height="240" as="geometry" />
        </mxCell>
        <mxCell id="XJknxzuPZn_kgnMr-SdR-2" value="App API:&lt;div&gt;Pi&lt;/div&gt;" style="text;html=1;align=center;verticalAlign=middle;whiteSpace=wrap;rounded=0;dashed=1;strokeColor=default;" parent="1" vertex="1">
          <mxGeometry x="510" y="520" width="170" height="30" as="geometry" />
        </mxCell>
        <mxCell id="XJknxzuPZn_kgnMr-SdR-3" value="&lt;h1 style=&quot;margin-top: 0px;&quot;&gt;App API components&lt;/h1&gt;&lt;p&gt;DataCollector&lt;/p&gt;&lt;p&gt;Pipeline&lt;/p&gt;&lt;p&gt;Visualizer&lt;/p&gt;&lt;p&gt;&lt;br&gt;&lt;/p&gt;" style="text;html=1;whiteSpace=wrap;overflow=hidden;rounded=0;" parent="1" vertex="1">
          <mxGeometry x="190" y="890" width="280" height="120" as="geometry" />
        </mxCell>
        <mxCell id="XJknxzuPZn_kgnMr-SdR-4" value="&lt;h1 style=&quot;margin-top: 0px;&quot;&gt;&lt;span style=&quot;background-color: initial;&quot;&gt;Architecture&lt;/span&gt;&lt;/h1&gt;&lt;div&gt;&lt;span style=&quot;background-color: initial;&quot;&gt;Data central (&lt;/span&gt;&lt;/div&gt;&lt;div&gt;message passing&lt;/div&gt;" style="text;html=1;whiteSpace=wrap;overflow=hidden;rounded=0;" parent="1" vertex="1">
          <mxGeometry x="600" y="890" width="280" height="120" as="geometry" />
        </mxCell>
        <mxCell id="VnkJfB5CQs-PpCup12FV-2" value="&lt;h1 style=&quot;margin-top: 0px;&quot;&gt;Concurrency&amp;nbsp;&lt;/h1&gt;&lt;div&gt;- Thread: share memory but do not really parallel. Can use readers-writter pattern.&lt;/div&gt;&lt;div&gt;- Multiprocess: Parallel but do not share memory. Data flow by passing.&lt;/div&gt;&lt;div&gt;&lt;br&gt;&lt;/div&gt;&lt;div&gt;- Bottle-neck: Pipeline. So dataflow to pipeline should as fast as possible.&lt;/div&gt;&lt;div&gt;&lt;br&gt;&lt;/div&gt;&lt;div&gt;- Solution: Pipeline and DataHub in 1 process, others components in different process.&lt;/div&gt;&lt;div&gt;&lt;span style=&quot;background-color: initial;&quot;&gt;&lt;span style=&quot;white-space: pre;&quot;&gt;&#x9;&lt;/span&gt;- Collector pass data to DataHub, then others components can read it by copy and use it in different process. Pipeline direct access to DataHub, calculate output and push it to DataHub.&lt;/span&gt;&lt;/div&gt;&lt;div&gt;&lt;span style=&quot;background-color: initial;&quot;&gt;&lt;br&gt;&lt;/span&gt;&lt;/div&gt;&lt;div&gt;&lt;span style=&quot;background-color: initial;&quot;&gt;- Solution 2: Using thread C++.&amp;nbsp;&amp;nbsp;&lt;/span&gt;&lt;br&gt;&lt;/div&gt;&lt;div&gt;&lt;span style=&quot;background-color: initial;&quot;&gt;&lt;br&gt;&lt;/span&gt;&lt;/div&gt;&lt;div&gt;&lt;span style=&quot;background-color: initial;&quot;&gt;Pipeline should not change the input.&amp;nbsp;&lt;/span&gt;&lt;/div&gt;&lt;div&gt;&lt;span style=&quot;background-color: initial;&quot;&gt;&lt;br&gt;&lt;/span&gt;&lt;/div&gt;" style="text;html=1;whiteSpace=wrap;overflow=hidden;rounded=0;" vertex="1" parent="1">
          <mxGeometry x="810" y="530" width="530" height="260" as="geometry" />
        </mxCell>
        <mxCell id="VnkJfB5CQs-PpCup12FV-3" value="DataHub" style="swimlane;fontStyle=1;align=center;verticalAlign=top;childLayout=stackLayout;horizontal=1;startSize=26;horizontalStack=0;resizeParent=1;resizeParentMax=0;resizeLast=0;collapsible=1;marginBottom=0;whiteSpace=wrap;html=1;" vertex="1" parent="1">
          <mxGeometry x="950" y="890" width="160" height="138" as="geometry">
            <mxRectangle x="950" y="890" width="90" height="30" as="alternateBounds" />
          </mxGeometry>
        </mxCell>
        <mxCell id="VnkJfB5CQs-PpCup12FV-4" value="+ field: type" style="text;strokeColor=none;fillColor=none;align=left;verticalAlign=top;spacingLeft=4;spacingRight=4;overflow=hidden;rotatable=0;points=[[0,0.5],[1,0.5]];portConstraint=eastwest;whiteSpace=wrap;html=1;" vertex="1" parent="VnkJfB5CQs-PpCup12FV-3">
          <mxGeometry y="26" width="160" height="26" as="geometry" />
        </mxCell>
        <mxCell id="VnkJfB5CQs-PpCup12FV-5" value="" style="line;strokeWidth=1;fillColor=none;align=left;verticalAlign=middle;spacingTop=-1;spacingLeft=3;spacingRight=3;rotatable=0;labelPosition=right;points=[];portConstraint=eastwest;strokeColor=inherit;" vertex="1" parent="VnkJfB5CQs-PpCup12FV-3">
          <mxGeometry y="52" width="160" height="8" as="geometry" />
        </mxCell>
        <mxCell id="VnkJfB5CQs-PpCup12FV-6" value="+ read(): Any" style="text;strokeColor=none;fillColor=none;align=left;verticalAlign=top;spacingLeft=4;spacingRight=4;overflow=hidden;rotatable=0;points=[[0,0.5],[1,0.5]];portConstraint=eastwest;whiteSpace=wrap;html=1;" vertex="1" parent="VnkJfB5CQs-PpCup12FV-3">
          <mxGeometry y="60" width="160" height="26" as="geometry" />
        </mxCell>
        <mxCell id="VnkJfB5CQs-PpCup12FV-15" value="+ copy(): Any" style="text;strokeColor=none;fillColor=none;align=left;verticalAlign=top;spacingLeft=4;spacingRight=4;overflow=hidden;rotatable=0;points=[[0,0.5],[1,0.5]];portConstraint=eastwest;whiteSpace=wrap;html=1;" vertex="1" parent="VnkJfB5CQs-PpCup12FV-3">
          <mxGeometry y="86" width="160" height="26" as="geometry" />
        </mxCell>
        <mxCell id="VnkJfB5CQs-PpCup12FV-14" value="+ push(type): None" style="text;strokeColor=none;fillColor=none;align=left;verticalAlign=top;spacingLeft=4;spacingRight=4;overflow=hidden;rotatable=0;points=[[0,0.5],[1,0.5]];portConstraint=eastwest;whiteSpace=wrap;html=1;" vertex="1" parent="VnkJfB5CQs-PpCup12FV-3">
          <mxGeometry y="112" width="160" height="26" as="geometry" />
        </mxCell>
        <mxCell id="VnkJfB5CQs-PpCup12FV-24" value="&lt;div&gt;&amp;lt;&amp;lt;interface&amp;gt;&amp;gt;&lt;/div&gt;&lt;div&gt;DataCollector&lt;/div&gt;" style="swimlane;fontStyle=1;align=center;verticalAlign=top;childLayout=stackLayout;horizontal=1;startSize=36;horizontalStack=0;resizeParent=1;resizeParentMax=0;resizeLast=0;collapsible=1;marginBottom=0;whiteSpace=wrap;html=1;" vertex="1" parent="1">
          <mxGeometry x="1200" y="890" width="160" height="94" as="geometry" />
        </mxCell>
        <mxCell id="VnkJfB5CQs-PpCup12FV-25" value="+ field: type" style="text;strokeColor=none;fillColor=none;align=left;verticalAlign=top;spacingLeft=4;spacingRight=4;overflow=hidden;rotatable=0;points=[[0,0.5],[1,0.5]];portConstraint=eastwest;whiteSpace=wrap;html=1;" vertex="1" parent="VnkJfB5CQs-PpCup12FV-24">
          <mxGeometry y="36" width="160" height="24" as="geometry" />
        </mxCell>
        <mxCell id="VnkJfB5CQs-PpCup12FV-26" value="" style="line;strokeWidth=1;fillColor=none;align=left;verticalAlign=middle;spacingTop=-1;spacingLeft=3;spacingRight=3;rotatable=0;labelPosition=right;points=[];portConstraint=eastwest;strokeColor=inherit;" vertex="1" parent="VnkJfB5CQs-PpCup12FV-24">
          <mxGeometry y="60" width="160" height="8" as="geometry" />
        </mxCell>
        <mxCell id="VnkJfB5CQs-PpCup12FV-27" value="+ method(type): type" style="text;strokeColor=none;fillColor=none;align=left;verticalAlign=top;spacingLeft=4;spacingRight=4;overflow=hidden;rotatable=0;points=[[0,0.5],[1,0.5]];portConstraint=eastwest;whiteSpace=wrap;html=1;" vertex="1" parent="VnkJfB5CQs-PpCup12FV-24">
          <mxGeometry y="68" width="160" height="26" as="geometry" />
        </mxCell>
      </root>
    </mxGraphModel>
  </diagram>
</mxfile>
